#Comment line ignore any data following # character 
#Hierarchical Translation and Rotation (.htr) file 
[Header]	
#Header keywords are followed by a single value 
FileType HTR		#Single word string
DataType HTRS		#Translation followed by rotation and scale data
FileVersion 1		#integer
NumSegments 64		#integer
NumFrames 2		#integer
DataFrameRate 30		#integer, data frame rate in this file
EulerRotationOrder ZYX
CalibrationUnits mm
RotationUnits Degrees
GlobalAxisofGravity Y
BoneLengthAxis Y
ScaleFactor 1.00
[SegmentNames&Hierarchy]
#CHILD	PARENT
Pinger_Root GLOBAL
Pelvis Pinger_Root
L_Hip Pelvis
R_Hip Pelvis
Rear_Leg01 Pelvis
Spine1 Pelvis
L_Leg01 L_Hip
L_Leg02 L_Leg01
L_Leg03 L_Leg02
L_Foot L_Leg03
L_Toe1_01 L_Foot
L_Toe2_01 L_Foot
L_Toe3_01 L_Foot
planeAlignerLeft L_Foot
L_Toe1_02 L_Toe1_01
L_Toe1_03 L_Toe1_02
L_Toe2_02 L_Toe2_01
L_Toe2_03 L_Toe2_02
L_Toe3_02 L_Toe3_01
L_Toe3_03 L_Toe3_02
planeLockWeightLeft planeAlignerLeft
R_Leg01 R_Hip
R_Leg02 R_Leg01
R_Leg03 R_Leg02
R_Foot R_Leg03
planeAlignerRight R_Foot
R_Toe1_01 R_Foot
R_Toe2_01 R_Foot
R_Toe3_01 R_Foot
planeLockWeightRight planeAlignerRight
R_Toe1_02 R_Toe1_01
R_Toe1_03 R_Toe1_02
R_Toe2_02 R_Toe2_01
R_Toe2_03 R_Toe2_02
R_Toe3_02 R_Toe3_01
R_Toe3_03 R_Toe3_02
Rear_Leg02 Rear_Leg01
Rear_Leg03 Rear_Leg02
Rear_Leg04 Rear_Leg03
Rear_Foot Rear_Leg04
planeAlignerCenter Rear_Foot
Rear_Toe1_01 Rear_Foot
Rear_Toe2_01 Rear_Foot
Rear_Toe3_01 Rear_Foot
planeLockWeightCenter planeAlignerCenter
Rear_Toe1_02 Rear_Toe1_01
Rear_Toe1_03 Rear_Toe1_02
Rear_Toe2_02 Rear_Toe2_01
Rear_Toe2_03 Rear_Toe2_02
Rear_Toe3_02 Rear_Toe3_01
Rear_Toe3_03 Rear_Toe3_02
Back_Bone Spine1
Head Spine1
Motor_Bone Back_Bone
Ping_Mechanism Back_Bone
BN_LookIK Head
bottomMouth Head
L_Mouth01 Head
L_mouthFront Head
mouthGun Head
R_Mouth01 Head
R_mouthFront Head
TopMouth Head
weapon_bone Head
[BasePosition]
#SegmentName Tx, Ty, Tz, Rx, Ry, Rz, BoneLength
Pinger_Root 0.000000 0.000000 0.000000 -90.000000 0.000000 0.000000 10.000000 
Pelvis 0.000000 0.000000 0.000000 0.000000 0.000000 0.000000 10.000000 
L_Hip 0.000000 0.000000 0.000000 0.000000 0.000000 0.000000 10.000000 
R_Hip 0.000000 0.000000 0.000000 0.000000 0.000000 0.000000 10.000000 
Rear_Leg01 0.000000 0.000000 0.000000 0.000000 0.000000 0.000000 10.000000 
Spine1 0.000000 0.000000 0.000000 0.000000 0.000000 0.000000 10.000000 
L_Leg01 0.000000 0.000000 0.000000 0.000000 0.000000 0.000000 10.000000 
L_Leg02 0.000000 0.000000 0.000000 0.000000 0.000000 0.000000 10.000000 
L_Leg03 0.000000 0.000000 0.000000 0.000000 0.000000 0.000000 10.000000 
L_Foot 0.000000 0.000000 0.000000 0.000000 0.000000 0.000000 10.000000 
L_Toe1_01 0.000000 0.000000 0.000000 0.000000 0.000000 0.000000 10.000000 
L_Toe2_01 0.000000 0.000000 0.000000 0.000000 0.000000 0.000000 10.000000 
L_Toe3_01 0.000000 0.000000 0.000000 0.000000 0.000000 0.000000 10.000000 
planeAlignerLeft 0.000000 0.000000 0.000000 0.000000 0.000000 0.000000 10.000000 
L_Toe1_02 0.000000 0.000000 0.000000 0.000000 0.000000 0.000000 10.000000 
L_Toe1_03 0.000000 0.000000 0.000000 0.000000 0.000000 0.000000 10.000000 
L_Toe2_02 0.000000 0.000000 0.000000 0.000000 0.000000 0.000000 10.000000 
L_Toe2_03 0.000000 0.000000 0.000000 0.000000 0.000000 0.000000 10.000000 
L_Toe3_02 0.000000 0.000000 0.000000 0.000000 0.000000 0.000000 10.000000 
L_Toe3_03 0.000000 0.000000 0.000000 0.000000 0.000000 0.000000 10.000000 
planeLockWeightLeft 0.000000 0.000000 0.000000 0.000000 0.000000 0.000000 10.000000 
R_Leg01 0.000000 0.000000 0.000000 0.000000 0.000000 0.000000 10.000000 
R_Leg02 0.000000 0.000000 0.000000 0.000000 0.000000 0.000000 10.000000 
R_Leg03 0.000000 0.000000 0.000000 0.000000 0.000000 0.000000 10.000000 
R_Foot 0.000000 0.000000 0.000000 0.000000 0.000000 0.000000 10.000000 
planeAlignerRight 0.000000 0.000000 0.000000 0.000000 0.000000 0.000000 10.000000 
R_Toe1_01 0.000000 0.000000 0.000000 0.000000 0.000000 0.000000 10.000000 
R_Toe2_01 0.000000 0.000000 0.000000 0.000000 0.000000 0.000000 10.000000 
R_Toe3_01 0.000000 0.000000 0.000000 0.000000 0.000000 0.000000 10.000000 
planeLockWeightRight 0.000000 0.000000 0.000000 0.000000 0.000000 0.000000 10.000000 
R_Toe1_02 0.000000 0.000000 0.000000 0.000000 0.000000 0.000000 10.000000 
R_Toe1_03 0.000000 0.000000 0.000000 0.000000 0.000000 0.000000 10.000000 
R_Toe2_02 0.000000 0.000000 0.000000 0.000000 0.000000 0.000000 10.000000 
R_Toe2_03 0.000000 0.000000 0.000000 0.000000 0.000000 0.000000 10.000000 
R_Toe3_02 0.000000 0.000000 0.000000 0.000000 0.000000 0.000000 10.000000 
R_Toe3_03 0.000000 0.000000 0.000000 0.000000 0.000000 0.000000 10.000000 
Rear_Leg02 0.000000 0.000000 0.000000 0.000000 0.000000 0.000000 10.000000 
Rear_Leg03 0.000000 0.000000 0.000000 0.000000 0.000000 0.000000 10.000000 
Rear_Leg04 0.000000 0.000000 0.000000 0.000000 0.000000 0.000000 10.000000 
Rear_Foot 0.000000 0.000000 0.000000 0.000000 0.000000 0.000000 10.000000 
planeAlignerCenter 0.000000 0.000000 0.000000 0.000000 0.000000 0.000000 10.000000 
Rear_Toe1_01 0.000000 0.000000 0.000000 0.000000 0.000000 0.000000 10.000000 
Rear_Toe2_01 0.000000 0.000000 0.000000 0.000000 0.000000 0.000000 10.000000 
Rear_Toe3_01 0.000000 0.000000 0.000000 0.000000 0.000000 0.000000 10.000000 
planeLockWeightCenter 0.000000 0.000000 0.000000 0.000000 0.000000 0.000000 10.000000 
Rear_Toe1_02 0.000000 0.000000 0.000000 0.000000 0.000000 0.000000 10.000000 
Rear_Toe1_03 0.000000 0.000000 0.000000 0.000000 0.000000 0.000000 10.000000 
Rear_Toe2_02 0.000000 0.000000 0.000000 0.000000 0.000000 0.000000 10.000000 
Rear_Toe2_03 0.000000 0.000000 0.000000 0.000000 0.000000 0.000000 10.000000 
Rear_Toe3_02 0.000000 0.000000 0.000000 0.000000 0.000000 0.000000 10.000000 
Rear_Toe3_03 0.000000 0.000000 0.000000 0.000000 0.000000 0.000000 10.000000 
Back_Bone 0.000000 0.000000 0.000000 0.000000 0.000000 0.000000 10.000000 
Head 0.000000 0.000000 0.000000 0.000000 0.000000 0.000000 10.000000 
Motor_Bone 0.000000 0.000000 0.000000 0.000000 0.000000 0.000000 10.000000 
Ping_Mechanism 0.000000 0.000000 0.000000 0.000000 0.000000 0.000000 10.000000 
BN_LookIK 0.000000 0.000000 0.000000 0.000000 0.000000 0.000000 10.000000 
bottomMouth 0.000000 0.000000 0.000000 0.000000 0.000000 0.000000 10.000000 
L_Mouth01 0.000000 0.000000 0.000000 0.000000 0.000000 0.000000 10.000000 
L_mouthFront 0.000000 0.000000 0.000000 0.000000 0.000000 0.000000 10.000000 
mouthGun 0.000000 0.000000 0.000000 0.000000 0.000000 0.000000 10.000000 
R_Mouth01 0.000000 0.000000 0.000000 0.000000 0.000000 0.000000 10.000000 
R_mouthFront 0.000000 0.000000 0.000000 0.000000 0.000000 0.000000 10.000000 
TopMouth 0.000000 0.000000 0.000000 0.000000 0.000000 0.000000 10.000000 
weapon_bone 0.000000 0.000000 0.000000 0.000000 0.000000 0.000000 10.000000 
#Beginning of Data. Separated by tabs
#Fr	Tx	Ty	Tz	Rx	Ry	Rz	SF
[Pinger_Root]
11 0.000000 0.000000 0.000000 -0.000075 -0.000000 -0.000020 0.000000
12 0.000000 0.000000 0.000000 -0.000075 -0.000000 -0.000020 0.000000
[Pelvis]
11 -207.012695 2095.284912 3546.094971 -77.303291 -59.473572 58.027866 4124.059082
12 -199.073318 2031.463867 3446.202881 -75.994041 -60.707993 57.496349 4005.345215
[L_Hip]
11 5.766392 125.831482 872.656799 0.797414 -85.127899 -65.053299 881.701050
12 5.766392 125.831482 872.656799 -23.144491 -83.480461 -37.760075 881.701050
[R_Hip]
11 5.765438 125.836372 -872.654907 -64.058540 56.491272 11.523989 881.699829
12 5.765438 125.836372 -872.654907 -72.991058 51.530567 2.696999 881.699829
[Rear_Leg01]
11 -192.298416 -925.602966 -0.001907 171.747696 25.333019 -159.646317 945.367432
12 -192.298416 -925.602966 -0.001907 172.864304 25.017210 -157.287292 945.367432
[Spine1]
11 290.604584 5.007505 0.000477 4.940820 -19.851555 10.901509 290.647736
12 290.604584 5.007505 0.000477 3.778736 -20.113344 13.094067 290.647736
[L_Leg01]
11 761.932007 -0.002384 -0.069261 68.405235 -59.638119 -66.855492 761.932068
12 761.932007 -0.002384 -0.069261 69.397072 -61.797283 -69.041290 761.932068
[L_Leg02]
11 1441.140503 -0.000954 -0.000715 7.663468 3.679499 -120.339615 1441.140503
12 1441.140503 -0.000954 -0.000715 7.953085 4.168461 -120.378258 1441.140503
[L_Leg03]
11 1686.963989 -0.000715 -0.000954 -0.133340 0.086860 146.076996 1686.963989
12 1686.963989 -0.000715 -0.000954 -0.138344 0.091930 147.547775 1686.963989
[L_Foot]
11 3041.570068 -30.715107 11.297464 5.608154 41.615326 59.997597 3041.746094
12 3041.570068 -30.715107 11.297464 4.835318 42.547462 58.254246 3041.746094
[L_Toe1_01]
11 -188.216690 -224.732346 -21.137953 94.115715 -1.626564 -179.630325 293.899567
12 -188.216690 -224.732346 -21.137953 94.115700 -1.626563 -179.630325 293.899567
[L_Toe2_01]
11 200.746536 -219.926590 148.838394 -98.201653 -27.888844 -34.221119 332.896027
12 200.746536 -219.926590 148.838394 -98.201630 -27.888582 -34.221409 332.896027
[L_Toe3_01]
11 188.832520 -219.859131 -191.078659 -99.862289 29.450607 -64.657669 347.140900
12 188.832520 -219.859131 -191.078659 -99.861839 29.450882 -64.657593 347.140900
[planeAlignerLeft]
11 0.812531 -811.448792 -0.314951 0.000000 -90.000000 -90.001900 811.449280
12 0.812531 -811.448792 -0.314951 0.000000 -90.000000 -90.001900 811.449280
[L_Toe1_02]
11 413.761139 0.000477 0.000000 0.001661 0.070897 0.001661 413.761139
12 413.761139 0.000477 0.000000 0.001661 0.070897 0.001661 413.761139
[L_Toe1_03]
11 464.317322 0.000358 -0.000089 0.001673 -0.448396 -0.003292 464.317322
12 464.317322 0.000358 -0.000089 0.001673 -0.448396 -0.003292 464.317322
[L_Toe2_02]
11 342.235809 -0.000477 0.000238 0.004684 -81.232765 0.004684 342.235809
12 342.235809 -0.000477 0.000238 0.004684 -81.229935 0.004684 342.235809
[L_Toe2_03]
11 420.210846 -0.000715 0.000000 179.993271 42.301842 -179.999084 420.210846
12 420.210846 -0.000715 0.000000 179.993271 42.301826 -179.999084 420.210846
[L_Toe3_02]
11 329.270111 0.000954 0.000000 0.004675 -84.688942 0.004675 329.270111
12 329.270111 0.000954 0.000000 0.004675 -84.692009 0.004675 329.270111
[L_Toe3_03]
11 439.137451 -0.001907 0.000954 179.993088 46.274662 -179.999390 439.137451
12 439.137451 -0.001907 0.000954 179.993088 46.274662 -179.999390 439.137451
[planeLockWeightLeft]
11 -0.000954 0.000238 -0.000305 -0.011826 -0.004376 0.005620 0.001029
12 -0.000954 0.000238 -0.000305 -0.011826 -0.004376 0.005620 0.001029
[R_Leg01]
11 761.455627 -0.001907 -0.000358 119.940613 -20.570980 78.449196 761.455688
12 761.455627 -0.001907 -0.000358 116.740089 -19.893555 86.962929 761.455688
[R_Leg02]
11 1441.140625 0.000000 -0.000238 -2.354773 -1.019604 -118.202698 1441.140625
12 1441.140625 0.000000 -0.000238 -2.319918 -1.002963 -113.658218 1441.140625
[R_Leg03]
11 1686.963989 0.000954 0.001431 0.126509 -0.080374 144.148499 1686.963989
12 1686.963989 0.000954 0.001431 0.126410 -0.080529 144.288834 1686.963989
[R_Foot]
11 3041.560059 -30.531288 -11.204481 5.635392 -9.930764 56.658642 3041.734131
12 3041.560059 -30.531288 -11.204481 5.632323 -9.837130 53.540985 3041.734131
[planeAlignerRight]
11 -0.635147 -812.270569 -0.364304 0.000000 -89.960434 -90.005180 812.270874
12 -0.635147 -812.270569 -0.364304 0.000000 -89.960434 -90.005180 812.270874
[R_Toe1_01]
11 -188.383347 -224.864899 21.052242 77.329880 -4.351033 -175.473358 294.101532
12 -188.383347 -224.864899 21.052242 77.328995 -4.353051 -175.459885 294.101532
[R_Toe2_01]
11 200.637817 -220.002121 -148.787384 -84.724449 32.131771 -46.480873 332.857574
12 200.637817 -220.002121 -148.787384 -84.724464 32.131771 -46.480877 332.857574
[R_Toe3_01]
11 188.606735 -220.092957 191.126343 -71.141426 -17.457075 -68.384689 347.192566
12 188.606735 -220.092957 191.126343 -71.140144 -17.460699 -68.387321 347.192566
[planeLockWeightRight]
11 -0.000477 0.000000 0.000000 -0.011823 -0.004379 -0.000027 0.000477
12 -0.000477 0.000000 0.000000 -0.011823 -0.004379 -0.000027 0.000477
[R_Toe1_02]
11 413.762085 0.000477 -0.000119 0.001385 -25.790667 0.001385 413.762085
12 413.762085 0.000477 -0.000119 0.001385 -25.823141 0.001385 413.762085
[R_Toe1_03]
11 464.317810 0.000000 0.001088 0.004309 58.392216 0.004309 464.317810
12 464.317810 0.000000 0.001088 0.004309 58.392197 0.004309 464.317810
[R_Toe2_02]
11 342.234741 -0.000954 0.000238 -0.002336 -78.161110 -0.002336 342.234741
12 342.234741 -0.000954 0.000238 -0.002336 -78.160759 -0.002336 342.234741
[R_Toe2_03]
11 420.210846 0.000715 -0.000268 -179.993973 74.504143 -179.997513 420.210846
12 420.210846 0.000715 -0.000268 -179.993973 74.504471 -179.997513 420.210846
[R_Toe3_02]
11 329.270355 -0.000477 -0.000954 0.001177 -80.709488 0.001177 329.270355
12 329.270355 -0.000477 -0.000954 0.001177 -80.759201 0.001177 329.270355
[R_Toe3_03]
11 439.137939 0.000238 0.001431 -179.996521 77.409218 -179.992996 439.137939
12 439.137939 0.000238 0.001431 -179.996521 77.409584 -179.992996 439.137939
[Rear_Leg02]
11 1162.777710 -0.029802 0.005960 13.202541 15.288036 -53.050819 1162.777710
12 1162.777710 -0.029802 0.005960 10.939278 17.049776 -61.446205 1162.777710
[Rear_Leg03]
11 607.192505 -0.013351 -0.073195 0.003875 0.005600 41.148026 607.192505
12 607.192505 -0.013351 -0.073195 0.004083 0.005451 45.458405 607.192505
[Rear_Leg04]
11 995.874512 -0.020504 -0.011921 -0.030830 -0.012760 20.818645 995.874573
12 995.874512 -0.020504 -0.011921 -0.031454 -0.011133 26.803753 995.874573
[Rear_Foot]
11 3096.176270 -0.067472 -0.041425 40.031715 67.361008 -108.349770 3096.176270
12 3096.176270 -0.067472 -0.041425 39.462345 67.322182 -110.275177 3096.176270
[planeAlignerCenter]
11 0.350077 0.966311 -838.790894 0.000009 0.000003 -179.999985 838.791565
12 0.350077 0.966311 -838.790894 0.000009 0.000003 -179.999985 838.791565
[Rear_Toe1_01]
11 0.653352 83.966492 -371.173737 0.575312 22.914965 90.995651 380.553192
12 0.653352 83.966492 -371.173737 0.655515 22.274073 91.117691 380.553192
[Rear_Toe2_01]
11 178.200760 -294.826019 -362.060547 -8.515841 20.090530 -69.711113 499.765686
12 178.200760 -294.826019 -362.060547 -8.460844 18.447647 -70.054146 499.765686
[Rear_Toe3_01]
11 -153.359680 -308.780914 -362.060852 3.873205 17.768520 -110.438629 499.952881
12 -153.359680 -308.780914 -362.060852 3.831956 15.306437 -110.205536 499.952881
[planeLockWeightCenter]
11 -0.000062 0.000238 0.000000 -0.011814 -0.004373 -0.000015 0.000246
12 -0.000062 0.000238 0.000000 -0.011814 -0.004373 -0.000015 0.000246
[Rear_Toe1_02]
11 379.707825 0.194073 0.000477 -0.006664 -31.697306 -0.006664 379.707855
12 379.707825 0.194073 0.000477 -0.006685 -31.060801 -0.006685 379.707855
[Rear_Toe1_03]
11 500.129700 0.165701 0.000119 -179.990875 81.069061 -179.994385 500.129761
12 500.129700 0.165701 0.000119 -179.993027 77.339516 -179.996552 500.129761
[Rear_Toe2_02]
11 340.494507 0.000238 -0.000954 0.001232 -54.453957 0.001232 340.494507
12 340.494507 0.000238 -0.000954 0.001252 -49.131664 0.001252 340.494507
[Rear_Toe2_03]
11 433.103577 0.000000 0.000238 0.003381 49.374706 0.003381 433.103546
12 433.103577 0.000000 0.000238 -0.003357 43.396278 0.000451 433.103546
[Rear_Toe3_02]
11 340.494141 -0.000358 -0.000477 -0.002495 -47.235493 -0.002495 340.494171
12 340.494141 -0.000358 -0.000477 -0.002562 -40.158207 -0.002562 340.494171
[Rear_Toe3_03]
11 433.103577 0.001431 -0.000238 0.000523 41.348831 -0.003314 433.103546
12 433.103577 0.001431 -0.000238 0.000752 34.124542 -0.003206 433.103546
[Back_Bone]
11 1312.175781 -701.934692 0.000954 6.630712 -4.283434 -64.169449 1488.125488
12 1312.175781 -701.934692 0.000954 6.225112 -4.025871 -64.951508 1488.125488
[Head]
11 1406.159424 809.709290 0.001431 0.012247 -1.595585 19.233335 1622.625488
12 1406.159424 809.709290 0.001431 -0.228073 -1.563384 24.617746 1622.625488
[Motor_Bone]
11 1158.364380 -417.834747 0.000477 -11.023516 8.838421 -133.574814 1231.419434
12 1158.364380 -417.834747 0.000477 -10.722186 4.571458 -129.218781 1231.419434
[Ping_Mechanism]
11 1315.250122 -526.877380 69.601891 0.000103 -0.000053 82.120995 1418.565186
12 1310.336792 -523.120728 68.374397 0.000103 -0.000053 82.120995 1412.555420
[BN_LookIK]
11 193.241119 1380.371704 -0.002861 0.000000 89.965736 -31.038179 1393.832153
12 193.241119 1380.371704 -0.002861 0.000000 89.965736 -31.038179 1393.832153
[bottomMouth]
11 -435.092926 615.759399 -0.000954 -0.000022 0.000016 73.527184 753.966492
12 -435.092926 615.759399 -0.000954 -0.000022 0.000016 73.527184 753.966492
[L_Mouth01]
11 554.440979 7.658243 838.222046 150.204178 23.759130 109.605339 1005.027161
12 554.440979 7.658243 838.222046 150.204178 23.759130 109.605339 1005.027161
[L_mouthFront]
11 551.629089 934.514771 339.150421 0.000081 2.804060 79.119301 1136.941284
12 551.629089 934.514771 339.150421 0.000081 2.804060 79.119301 1136.941284
[mouthGun]
11 55.332661 1627.420898 0.000000 0.000023 0.000009 -11.038128 1628.361328
12 55.332661 1627.420898 0.000000 0.000023 0.000009 -11.038128 1628.361328
[R_Mouth01]
11 554.442383 7.659197 -838.223938 29.795891 -23.759109 109.605331 1005.029541
12 554.442383 7.659197 -838.223938 29.795891 -23.759109 109.605331 1005.029541
[R_mouthFront]
11 551.629089 934.514282 -339.151367 0.000029 -2.803930 79.119133 1136.941162
12 551.629089 934.514282 -339.151367 0.000029 -2.803930 79.119133 1136.941162
[TopMouth]
11 461.269867 -56.106091 -0.008583 -0.000059 -0.000268 92.025169 464.669525
12 461.269867 -56.106091 -0.008583 -0.000059 -0.000268 92.025169 464.669525
[weapon_bone]
11 -987.239868 1448.372803 0.001431 0.000000 89.965736 -31.038221 1752.833740
12 -987.239868 1448.372803 0.001431 0.000000 89.965736 -31.038221 1752.833740
